# xmcd
#
# Track frame offsets:
# 150
# 32295
# 35668
# 93786
# 97460
# 132605
# 136440
# 174184
# 203698
# 228351
# 236040
# 258816
#
# Disc length: 3732 seconds
#
#
# Revision: 1
# Processed by: cddbd v1.5.2PL0 Copyright (c) Steve Scherf et al.
# Submitted via: FreeRIP 2.951 
#
DISCID=9d0e920c
DTITLE=Gianluigi Trovesi - Dedalo
DYEAR=2002
DGENRE=Jazz
TTITLE0=Hercab
TTITLE1=Hercab (Fragment)
TTITLE2=Herbop
TTITLE3=Dance for a king (Fragment 1)
TTITLE4=Now I can
TTITLE5=Dance for a king (Fragment 2)
TTITLE6=From G to G
TTITLE7=Scotch
TTITLE8=Dance for the east no.2
TTITLE9=Dance for a king (Fragment 3)
TTITLE10=Delado
TTITLE11=Hercab (Live Version)
EXTD=YEAR: 2002
EXTT0=
EXTT1=
EXTT2=
EXTT3=
EXTT4=
EXTT5=
EXTT6=
EXTT7=
EXTT8=
EXTT9=
EXTT10=
EXTT11=
PLAYORDER=
